<svg xmlns="http://www.w3.org/2000/svg" xmlns:xlink="http://www.w3.org/1999/xlink" width="500" zoomAndPan="magnify" viewBox="0 0 375 374.999991" height="500" preserveAspectRatio="xMidYMid meet" version="1.0"><defs><g/><clipPath id="59ba33c16c"><path d="M 116.4375 84.222656 L 183 84.222656 L 183 225.972656 L 116.4375 225.972656 Z M 116.4375 84.222656 " clip-rule="nonzero"/></clipPath><clipPath id="daad589218"><path d="M 193 84.222656 L 258.1875 84.222656 L 258.1875 225.972656 L 193 225.972656 Z M 193 84.222656 " clip-rule="nonzero"/></clipPath></defs><rect x="-37.5" width="450" fill="#ffffff" y="-37.499999" height="449.999989" fill-opacity="1"/><g clip-path="url(#59ba33c16c)"><path fill="#123b62" d="M 159.003906 162.101562 L 141.242188 130.339844 L 140.121094 164.714844 L 139 130.339844 L 121.242188 162.101562 L 121.054688 162 L 122 159.734375 L 122.988281 157.488281 C 123.3125 156.738281 123.660156 156 124 155.257812 L 125.023438 153.03125 L 127.132812 148.617188 C 127.480469 147.878906 127.851562 147.152344 128.214844 146.425781 L 129.308594 144.238281 L 130.402344 142.054688 L 131.53125 139.886719 L 133.789062 135.554688 C 134.160156 134.828125 134.558594 134.121094 134.945312 133.402344 L 138.449219 126.96875 L 140.121094 123.902344 L 141.792969 126.96875 L 144.125 131.257812 C 144.898438 132.691406 145.699219 134.113281 146.449219 135.558594 L 148.710938 139.886719 C 149.082031 140.609375 149.46875 141.328125 149.835938 142.054688 L 150.929688 144.242188 C 151.652344 145.699219 152.402344 147.148438 153.101562 148.621094 L 155.214844 153.035156 L 156.238281 155.257812 C 156.578125 156 156.925781 156.738281 157.25 157.488281 L 158.238281 159.734375 L 159.1875 162 Z M 140.121094 175.257812 C 130.570312 175.257812 122.667969 167.316406 121.34375 162.90625 C 124.859375 165.53125 134.140625 166.300781 140.121094 166.300781 C 146.101562 166.300781 155.382812 165.53125 158.898438 162.90625 C 157.574219 167.316406 149.675781 175.257812 140.121094 175.257812 Z M 181.078125 119.972656 C 179.234375 118.160156 178.09375 115.636719 178.09375 112.847656 C 178.09375 112.839844 178.09375 112.832031 178.09375 112.820312 C 178.105469 109.28125 172.445312 110.425781 170.320312 110.53125 C 167.332031 110.679688 164.355469 111.0625 161.417969 111.621094 C 150.902344 113.613281 139.632812 117.675781 131.53125 124.898438 C 137.164062 111.789062 157.71875 101.816406 182.882812 100.597656 C 180.011719 98.839844 178.09375 95.6875 178.09375 92.078125 C 178.09375 88.886719 179.59375 86.054688 181.917969 84.222656 L 127.289062 84.222656 C 121.296875 84.222656 116.4375 89.082031 116.4375 95.074219 L 116.4375 215.484375 C 116.4375 221.476562 121.296875 226.335938 127.289062 226.335938 L 128.429688 226.335938 C 157.425781 226.335938 180.945312 202.855469 180.992188 173.859375 L 181.078125 119.972656 " fill-opacity="1" fill-rule="nonzero"/></g><g clip-path="url(#daad589218)"><path fill="#c1902d" d="M 253.753906 162.101562 L 235.992188 130.339844 L 234.871094 164.714844 L 233.75 130.339844 L 215.988281 162.101562 L 215.804688 162 L 216.75 159.734375 L 217.738281 157.488281 C 218.0625 156.738281 218.410156 156 218.75 155.257812 L 219.773438 153.03125 L 221.882812 148.617188 C 222.230469 147.878906 222.601562 147.152344 222.964844 146.425781 L 224.058594 144.238281 L 225.152344 142.054688 L 226.277344 139.886719 L 228.539062 135.554688 C 228.910156 134.828125 229.308594 134.121094 229.695312 133.402344 L 233.199219 126.96875 L 234.871094 123.902344 L 236.542969 126.96875 L 238.875 131.257812 C 239.648438 132.691406 240.449219 134.113281 241.199219 135.558594 L 243.460938 139.886719 C 243.832031 140.609375 244.21875 141.328125 244.582031 142.054688 L 245.679688 144.242188 C 246.402344 145.699219 247.152344 147.148438 247.851562 148.621094 L 249.964844 153.035156 L 250.988281 155.257812 C 251.328125 156 251.675781 156.738281 252 157.488281 L 252.988281 159.734375 L 253.9375 162 Z M 234.871094 175.257812 C 225.320312 175.257812 217.417969 167.316406 216.09375 162.90625 C 219.609375 165.53125 228.890625 166.300781 234.871094 166.300781 C 240.851562 166.300781 250.132812 165.53125 253.648438 162.90625 C 252.320312 167.316406 244.421875 175.257812 234.871094 175.257812 Z M 247.703125 84.222656 L 194.257812 84.222656 C 196.585938 86.054688 198.082031 88.886719 198.082031 92.078125 C 198.082031 95.6875 196.160156 98.839844 193.292969 100.597656 C 218.460938 101.816406 239.011719 111.789062 244.648438 124.898438 C 244.375 124.269531 243.027344 123.515625 242.488281 123.09375 C 241.71875 122.488281 240.929688 121.910156 240.125 121.351562 C 238.429688 120.175781 236.65625 119.097656 234.839844 118.113281 C 229.574219 115.257812 223.886719 113.175781 218.039062 111.890625 C 214.902344 111.203125 211.714844 110.746094 208.511719 110.539062 C 206.863281 110.433594 205.214844 110.390625 203.566406 110.417969 C 202.253906 110.4375 200.339844 110.152344 199.179688 110.847656 C 197.644531 111.765625 198.132812 114.0625 197.707031 115.566406 C 197.457031 116.457031 197.078125 117.316406 196.59375 118.101562 C 196.34375 118.5 195.125 119.59375 195.097656 119.972656 C 195.097656 119.992188 195.117188 147.015625 195.140625 173.816406 C 195.164062 202.832031 218.6875 226.335938 247.703125 226.335938 C 253.695312 226.335938 258.550781 221.476562 258.550781 215.484375 L 258.550781 95.074219 C 258.550781 89.082031 253.695312 84.222656 247.703125 84.222656 " fill-opacity="1" fill-rule="nonzero"/></g><g fill="#123b62" fill-opacity="1"><g transform="translate(120.815622, 267.676696)"><g><path d="M 0.625 -0.671875 C 0.625 -1.210938 0.695312 -1.90625 0.84375 -2.75 C 1 -3.601562 1.34375 -4.613281 1.875 -5.78125 L 4.828125 -4.75 C 4.554688 -4 4.347656 -3.351562 4.203125 -2.8125 C 4.054688 -2.28125 3.984375 -1.757812 3.984375 -1.25 C 3.984375 -0.1875 4.4375 0.648438 5.34375 1.265625 C 6.25 1.878906 7.546875 2.1875 9.234375 2.1875 C 10.992188 2.1875 12.375 2.019531 13.375 1.6875 C 14.375 1.363281 14.875 0.878906 14.875 0.234375 C 14.875 -0.0351562 14.65625 -0.304688 14.21875 -0.578125 C 13.78125 -0.847656 13.023438 -1.175781 11.953125 -1.5625 L 12.75 -4.9375 C 14.101562 -4.363281 15.335938 -3.9375 16.453125 -3.65625 C 17.578125 -3.375 18.570312 -3.234375 19.4375 -3.234375 C 20.050781 -3.234375 20.484375 -3.078125 20.734375 -2.765625 C 20.992188 -2.453125 21.125 -2.066406 21.125 -1.609375 C 21.125 -1.109375 20.953125 -0.691406 20.609375 -0.359375 C 20.273438 -0.0351562 19.804688 0.125 19.203125 0.125 L 18.09375 0.125 C 18.125 0.28125 18.140625 0.414062 18.140625 0.53125 C 18.140625 0.65625 18.140625 0.773438 18.140625 0.890625 C 18.140625 1.421875 17.957031 1.957031 17.59375 2.5 C 17.238281 3.039062 16.6875 3.539062 15.9375 4 C 15.1875 4.46875 14.226562 4.84375 13.0625 5.125 C 11.90625 5.40625 10.523438 5.546875 8.921875 5.546875 C 6.316406 5.546875 4.28125 5.046875 2.8125 4.046875 C 1.351562 3.046875 0.625 1.472656 0.625 -0.671875 Z M 11.28125 11.109375 C 10.8125 11.109375 10.410156 10.945312 10.078125 10.625 C 9.753906 10.3125 9.59375 9.921875 9.59375 9.453125 C 9.59375 8.992188 9.753906 8.59375 10.078125 8.25 C 10.410156 7.914062 10.8125 7.75 11.28125 7.75 C 11.726562 7.75 12.109375 7.914062 12.421875 8.25 C 12.742188 8.59375 12.90625 8.992188 12.90625 9.453125 C 12.90625 9.921875 12.742188 10.3125 12.421875 10.625 C 12.109375 10.945312 11.726562 11.109375 11.28125 11.109375 Z M 7.125 11.109375 C 6.664062 11.109375 6.269531 10.945312 5.9375 10.625 C 5.613281 10.3125 5.453125 9.921875 5.453125 9.453125 C 5.453125 8.992188 5.613281 8.59375 5.9375 8.25 C 6.269531 7.914062 6.664062 7.75 7.125 7.75 C 7.570312 7.75 7.957031 7.914062 8.28125 8.25 C 8.601562 8.59375 8.765625 8.992188 8.765625 9.453125 C 8.765625 9.921875 8.601562 10.3125 8.28125 10.625 C 7.957031 10.945312 7.570312 11.109375 7.125 11.109375 Z M 7.125 11.109375 "/></g></g></g><g fill="#123b62" fill-opacity="1"><g transform="translate(140.615659, 267.676696)"><g><path d="M 0 0.125 L 0.234375 -3.234375 C 0.847656 -3.234375 1.332031 -3.289062 1.6875 -3.40625 C 2.050781 -3.519531 2.335938 -3.75 2.546875 -4.09375 C 2.765625 -4.4375 2.953125 -4.941406 3.109375 -5.609375 C 3.265625 -6.285156 3.421875 -7.179688 3.578125 -8.296875 L 6.71875 -7.78125 C 6.65625 -7.40625 6.582031 -6.960938 6.5 -6.453125 C 6.425781 -5.941406 6.390625 -5.472656 6.390625 -5.046875 C 6.390625 -4.660156 6.472656 -4.328125 6.640625 -4.046875 C 6.804688 -3.773438 7.109375 -3.570312 7.546875 -3.4375 C 7.984375 -3.300781 8.617188 -3.234375 9.453125 -3.234375 C 10.066406 -3.234375 10.5 -3.078125 10.75 -2.765625 C 11.007812 -2.453125 11.140625 -2.066406 11.140625 -1.609375 C 11.140625 -1.109375 10.972656 -0.691406 10.640625 -0.359375 C 10.316406 -0.0351562 9.84375 0.125 9.21875 0.125 C 7.9375 0.125 6.9375 -0.0078125 6.21875 -0.28125 C 5.507812 -0.5625 5.003906 -1.050781 4.703125 -1.75 C 4.109375 -0.914062 3.40625 -0.394531 2.59375 -0.1875 C 1.789062 0.0195312 0.925781 0.125 0 0.125 Z M 4.265625 5.640625 C 3.804688 5.640625 3.410156 5.476562 3.078125 5.15625 C 2.753906 4.832031 2.59375 4.441406 2.59375 3.984375 C 2.59375 3.515625 2.753906 3.109375 3.078125 2.765625 C 3.410156 2.421875 3.804688 2.25 4.265625 2.25 C 4.710938 2.25 5.101562 2.421875 5.4375 2.765625 C 5.78125 3.109375 5.953125 3.515625 5.953125 3.984375 C 5.953125 4.441406 5.78125 4.832031 5.4375 5.15625 C 5.101562 5.476562 4.710938 5.640625 4.265625 5.640625 Z M 4.265625 5.640625 "/></g></g></g><g fill="#123b62" fill-opacity="1"><g transform="translate(150.431676, 267.676696)"><g><path d="M 0 0.125 L 0.234375 -3.234375 L 1.421875 -3.234375 C 1.734375 -3.734375 2.066406 -4.21875 2.421875 -4.6875 L 1.984375 -17.5625 L 5.359375 -17.5625 L 5.71875 -8.234375 C 6.625 -9.003906 7.582031 -9.617188 8.59375 -10.078125 C 9.613281 -10.546875 10.644531 -10.78125 11.6875 -10.78125 C 12.738281 -10.78125 13.640625 -10.5625 14.390625 -10.125 C 15.148438 -9.695312 15.734375 -9.101562 16.140625 -8.34375 C 16.546875 -7.582031 16.75 -6.710938 16.75 -5.734375 C 16.75 -4.691406 16.457031 -3.753906 15.875 -2.921875 C 15.289062 -2.097656 14.300781 -1.410156 12.90625 -0.859375 C 12.320312 -0.640625 11.679688 -0.457031 10.984375 -0.3125 C 10.296875 -0.164062 9.488281 -0.0546875 8.5625 0.015625 C 7.632812 0.0859375 6.523438 0.125 5.234375 0.125 Z M 11.40625 -7.421875 C 10.675781 -7.421875 9.957031 -7.21875 9.25 -6.8125 C 8.539062 -6.414062 7.859375 -5.898438 7.203125 -5.265625 C 6.554688 -4.628906 5.960938 -3.953125 5.421875 -3.234375 L 5.609375 -3.234375 C 7.628906 -3.234375 9.203125 -3.332031 10.328125 -3.53125 C 11.460938 -3.738281 12.253906 -4.015625 12.703125 -4.359375 C 13.160156 -4.710938 13.390625 -5.125 13.390625 -5.59375 C 13.390625 -6.050781 13.226562 -6.46875 12.90625 -6.84375 C 12.59375 -7.226562 12.09375 -7.421875 11.40625 -7.421875 Z M 18.265625 0.125 C 17.035156 0.125 15.890625 -0.0351562 14.828125 -0.359375 C 13.773438 -0.691406 12.96875 -1.097656 12.40625 -1.578125 L 14.5625 -3.90625 C 15.144531 -3.664062 15.738281 -3.492188 16.34375 -3.390625 C 16.945312 -3.285156 17.664062 -3.234375 18.5 -3.234375 C 19.09375 -3.234375 19.523438 -3.078125 19.796875 -2.765625 C 20.066406 -2.453125 20.203125 -2.066406 20.203125 -1.609375 C 20.203125 -1.109375 20.035156 -0.691406 19.703125 -0.359375 C 19.367188 -0.0351562 18.890625 0.125 18.265625 0.125 Z M 18.265625 0.125 "/></g></g></g><g fill="#123b62" fill-opacity="1"><g transform="translate(169.319708, 267.676696)"><g><path d="M 0 0.125 L 0.234375 -3.234375 C 0.972656 -3.234375 1.5 -3.3125 1.8125 -3.46875 C 2.132812 -3.625 2.328125 -3.910156 2.390625 -4.328125 C 2.460938 -4.753906 2.484375 -5.375 2.453125 -6.1875 L 2.015625 -17.5625 L 5.40625 -17.5625 L 5.875 -5.953125 C 5.90625 -5.023438 5.867188 -4.1875 5.765625 -3.4375 C 5.660156 -2.695312 5.410156 -2.0625 5.015625 -1.53125 C 4.628906 -1.007812 4.03125 -0.601562 3.21875 -0.3125 C 2.414062 -0.0195312 1.34375 0.125 0 0.125 Z M 0 0.125 "/></g></g></g><g fill="#123b62" fill-opacity="1"><g transform="translate(177.047719, 267.676696)"><g><path d="M 1.921875 0 L 1.421875 -17.5625 L 4.78125 -17.5625 L 5.28125 0 Z M 1.921875 0 "/></g></g></g><g fill="#123b62" fill-opacity="1"><g transform="translate(184.199738, 267.676696)"><g/></g></g><g fill="#123b62" fill-opacity="1"><g transform="translate(190.367749, 267.676696)"><g><path d="M 8.921875 9.453125 C 7.847656 9.453125 6.800781 9.320312 5.78125 9.0625 C 4.769531 8.8125 3.859375 8.410156 3.046875 7.859375 C 2.234375 7.304688 1.585938 6.597656 1.109375 5.734375 C 0.628906 4.867188 0.390625 3.828125 0.390625 2.609375 C 0.390625 1.253906 0.671875 0.015625 1.234375 -1.109375 C 1.804688 -2.242188 2.601562 -3.234375 3.625 -4.078125 C 2.90625 -4.460938 2.296875 -5.019531 1.796875 -5.75 C 1.304688 -6.476562 1.0625 -7.382812 1.0625 -8.46875 C 1.0625 -9.476562 1.320312 -10.347656 1.84375 -11.078125 C 2.375 -11.816406 3.078125 -12.382812 3.953125 -12.78125 C 4.835938 -13.1875 5.800781 -13.390625 6.84375 -13.390625 C 7.332031 -13.390625 7.800781 -13.359375 8.25 -13.296875 C 8.695312 -13.234375 9.15625 -13.140625 9.625 -13.015625 L 9.09375 -9.8125 C 8.757812 -9.894531 8.414062 -9.957031 8.0625 -10 C 7.707031 -10.050781 7.394531 -10.078125 7.125 -10.078125 C 6.28125 -10.078125 5.617188 -9.898438 5.140625 -9.546875 C 4.660156 -9.203125 4.421875 -8.722656 4.421875 -8.109375 C 4.421875 -7.617188 4.632812 -7.175781 5.0625 -6.78125 C 5.5 -6.382812 5.992188 -6.09375 6.546875 -5.90625 C 7.941406 -6.539062 9.476562 -6.988281 11.15625 -7.25 L 11.953125 -4.078125 C 9.140625 -3.566406 7.066406 -2.738281 5.734375 -1.59375 C 4.410156 -0.445312 3.75 0.832031 3.75 2.25 C 3.75 2.976562 3.910156 3.585938 4.234375 4.078125 C 4.566406 4.578125 4.992188 4.972656 5.515625 5.265625 C 6.046875 5.566406 6.609375 5.78125 7.203125 5.90625 C 7.804688 6.03125 8.378906 6.09375 8.921875 6.09375 C 10.023438 6.09375 11.050781 5.988281 12 5.78125 C 12.957031 5.570312 13.796875 5.316406 14.515625 5.015625 L 15.484375 8.109375 C 15.097656 8.304688 14.554688 8.507812 13.859375 8.71875 C 13.160156 8.925781 12.382812 9.097656 11.53125 9.234375 C 10.675781 9.378906 9.804688 9.453125 8.921875 9.453125 Z M 8.921875 9.453125 "/></g></g></g><g fill="#123b62" fill-opacity="1"><g transform="translate(204.647777, 267.676696)"><g><path d="M 7.609375 0.125 C 6.117188 0.125 4.96875 -0.0234375 4.15625 -0.328125 C 3.351562 -0.640625 2.785156 -1.117188 2.453125 -1.765625 C 2.128906 -2.410156 1.953125 -3.226562 1.921875 -4.21875 L 1.421875 -17.5625 L 4.78125 -17.5625 L 5.28125 -5.828125 C 5.3125 -5.097656 5.390625 -4.546875 5.515625 -4.171875 C 5.648438 -3.804688 5.890625 -3.554688 6.234375 -3.421875 C 6.585938 -3.296875 7.125 -3.234375 7.84375 -3.234375 C 8.4375 -3.234375 8.867188 -3.078125 9.140625 -2.765625 C 9.410156 -2.453125 9.546875 -2.066406 9.546875 -1.609375 C 9.546875 -1.109375 9.378906 -0.691406 9.046875 -0.359375 C 8.710938 -0.0351562 8.234375 0.125 7.609375 0.125 Z M 7.609375 0.125 "/></g></g></g><g fill="#123b62" fill-opacity="1"><g transform="translate(212.879798, 267.676696)"><g><path d="M 0 0.125 L 0.234375 -3.21875 C 1.546875 -3.21875 2.609375 -3.222656 3.421875 -3.234375 C 4.242188 -3.253906 4.882812 -3.289062 5.34375 -3.34375 C 5.800781 -3.40625 6.140625 -3.476562 6.359375 -3.5625 C 6.585938 -3.65625 6.78125 -3.753906 6.9375 -3.859375 C 7.0625 -3.960938 7.175781 -4.082031 7.28125 -4.21875 C 7.382812 -4.363281 7.476562 -4.539062 7.5625 -4.75 C 6.90625 -4.507812 6.222656 -4.390625 5.515625 -4.390625 C 4.234375 -4.390625 3.222656 -4.65625 2.484375 -5.1875 C 1.753906 -5.726562 1.390625 -6.679688 1.390625 -8.046875 C 1.390625 -8.742188 1.507812 -9.441406 1.75 -10.140625 C 1.988281 -10.835938 2.332031 -11.46875 2.78125 -12.03125 C 3.226562 -12.601562 3.753906 -13.0625 4.359375 -13.40625 C 4.972656 -13.75 5.648438 -13.921875 6.390625 -13.921875 C 7.472656 -13.921875 8.367188 -13.601562 9.078125 -12.96875 C 9.796875 -12.34375 10.328125 -11.492188 10.671875 -10.421875 C 11.015625 -9.359375 11.1875 -8.179688 11.1875 -6.890625 C 11.1875 -5.753906 11.015625 -4.765625 10.671875 -3.921875 C 10.335938 -3.078125 9.941406 -2.414062 9.484375 -1.9375 C 9.097656 -1.539062 8.65625 -1.207031 8.15625 -0.9375 C 7.664062 -0.664062 7.0625 -0.453125 6.34375 -0.296875 C 5.632812 -0.148438 4.765625 -0.046875 3.734375 0.015625 C 2.703125 0.0859375 1.457031 0.125 0 0.125 Z M 4.703125 -8.6875 C 4.703125 -8 5.238281 -7.65625 6.3125 -7.65625 C 6.820312 -7.65625 7.332031 -7.734375 7.84375 -7.890625 C 7.769531 -8.773438 7.585938 -9.445312 7.296875 -9.90625 C 7.003906 -10.375 6.632812 -10.609375 6.1875 -10.609375 C 5.800781 -10.609375 5.457031 -10.421875 5.15625 -10.046875 C 4.851562 -9.679688 4.703125 -9.226562 4.703125 -8.6875 Z M 6.34375 -16.15625 C 5.84375 -16.15625 5.421875 -16.320312 5.078125 -16.65625 C 4.734375 -16.988281 4.5625 -17.40625 4.5625 -17.90625 C 4.5625 -18.394531 4.734375 -18.816406 5.078125 -19.171875 C 5.421875 -19.523438 5.84375 -19.703125 6.34375 -19.703125 C 6.820312 -19.703125 7.234375 -19.523438 7.578125 -19.171875 C 7.921875 -18.816406 8.09375 -18.394531 8.09375 -17.90625 C 8.09375 -17.40625 7.921875 -16.988281 7.578125 -16.65625 C 7.234375 -16.320312 6.820312 -16.15625 6.34375 -16.15625 Z M 6.34375 -16.15625 "/></g></g></g><g fill="#123b62" fill-opacity="1"><g transform="translate(225.599825, 267.676696)"><g><path d="M 5.234375 -3.234375 C 6.304688 -3.234375 7.015625 -3.375 7.359375 -3.65625 C 7.710938 -3.9375 7.890625 -4.253906 7.890625 -4.609375 C 7.890625 -4.992188 7.78125 -5.441406 7.5625 -5.953125 C 7.351562 -6.460938 7.085938 -7 6.765625 -7.5625 C 6.441406 -8.125 6.101562 -8.660156 5.75 -9.171875 C 5.40625 -9.679688 5.101562 -10.128906 4.84375 -10.515625 L 7.703125 -12.40625 C 8.742188 -11.007812 9.5625 -9.660156 10.15625 -8.359375 C 10.757812 -7.054688 11.160156 -6 11.359375 -5.1875 C 11.523438 -4.414062 11.859375 -3.894531 12.359375 -3.625 C 12.859375 -3.363281 13.378906 -3.234375 13.921875 -3.234375 C 14.523438 -3.234375 14.957031 -3.078125 15.21875 -2.765625 C 15.488281 -2.453125 15.625 -2.066406 15.625 -1.609375 C 15.625 -1.109375 15.457031 -0.691406 15.125 -0.359375 C 14.800781 -0.0351562 14.320312 0.125 13.6875 0.125 C 12.175781 0.125 11.050781 -0.335938 10.3125 -1.265625 C 9.882812 -0.847656 9.273438 -0.507812 8.484375 -0.25 C 7.703125 0.0078125 6.78125 0.140625 5.71875 0.140625 C 4.976562 0.140625 4.148438 0.0507812 3.234375 -0.125 C 2.328125 -0.300781 1.53125 -0.578125 0.84375 -0.953125 L 2.015625 -4.015625 C 2.609375 -3.734375 3.179688 -3.53125 3.734375 -3.40625 C 4.285156 -3.289062 4.785156 -3.234375 5.234375 -3.234375 Z M 5.234375 -3.234375 "/></g></g></g><g fill="#123b62" fill-opacity="1"><g transform="translate(239.903852, 267.676696)"><g><path d="M 0 0.125 L 0.234375 -3.234375 C 0.972656 -3.234375 1.5 -3.3125 1.8125 -3.46875 C 2.132812 -3.625 2.328125 -3.910156 2.390625 -4.328125 C 2.460938 -4.753906 2.484375 -5.375 2.453125 -6.1875 L 2.015625 -17.5625 L 5.40625 -17.5625 L 5.875 -5.953125 C 5.90625 -5.023438 5.867188 -4.1875 5.765625 -3.4375 C 5.660156 -2.695312 5.410156 -2.0625 5.015625 -1.53125 C 4.628906 -1.007812 4.03125 -0.601562 3.21875 -0.3125 C 2.414062 -0.0195312 1.34375 0.125 0 0.125 Z M 0 0.125 "/></g></g></g><g fill="#123b62" fill-opacity="1"><g transform="translate(247.631863, 267.676696)"><g><path d="M 1.921875 0 L 1.421875 -17.5625 L 4.78125 -17.5625 L 5.28125 0 Z M 1.921875 0 "/></g></g></g></svg>